<svg width="80" height="47" viewBox="0 0 80 47" fill="none" xmlns="http://www.w3.org/2000/svg">
<path d="M4.97754 33.706C6.6377 33.6572 7.98861 33.5921 9.03027 33.5107C10.0882 33.413 10.9183 33.2421 11.5205 32.998C12.139 32.7538 12.5622 32.4039 12.79 31.9482C13.0179 31.4925 13.1318 30.874 13.1318 30.0927C13.1318 29.9462 13.1237 29.7916 13.1074 29.6288C13.0911 29.4661 13.0667 29.3033 13.0342 29.1406L13.4248 28.8964C13.7829 29.1406 14.1003 29.4335 14.377 29.7753C14.6699 30.1009 14.9141 30.4426 15.1094 30.8007C15.321 31.1425 15.4756 31.4843 15.5732 31.8261C15.6872 32.1679 15.7441 32.4772 15.7441 32.7538C15.7441 32.9492 15.6872 33.2014 15.5732 33.5107C15.4756 33.8199 15.3128 34.121 15.085 34.414C14.8734 34.707 14.5967 34.9592 14.2549 35.1708C13.9131 35.3824 13.5062 35.4882 13.0342 35.4882C12.2204 35.4882 11.4635 35.4638 10.7637 35.415C10.0801 35.3661 9.39648 35.3092 8.71289 35.2441C8.0293 35.179 7.32129 35.122 6.58887 35.0732C5.85645 35.0244 5.05078 34.9999 4.17188 34.9999C4.07422 34.9999 3.87077 35.0081 3.56152 35.0244C3.25228 35.0406 2.90234 35.065 2.51172 35.0976C2.12109 35.1301 1.73047 35.1708 1.33984 35.2197C0.932943 35.2848 0.583008 35.358 0.290039 35.4394L0.0214844 34.9511C0.249349 34.5768 0.53418 33.9827 0.875977 33.1689C1.2015 32.3551 1.56771 31.3867 1.97461 30.2636C2.38151 29.1406 2.8291 27.8792 3.31738 26.4794C3.78939 25.0634 4.27767 23.5742 4.78223 22.0117C5.30306 20.4492 5.83203 18.8297 6.36914 17.1533C6.92253 15.4606 7.47591 13.7597 8.0293 12.0507C8.38737 10.9602 8.81868 9.9918 9.32324 9.14545C9.8278 8.28282 10.3405 7.52598 10.8613 6.87494C11.3984 6.2239 11.8949 5.68679 12.3506 5.26361C12.8226 4.82416 13.1969 4.48236 13.4736 4.23822C13.848 3.9127 14.2712 3.56276 14.7432 3.18842C15.2314 2.81407 15.7116 2.46413 16.1836 2.13861C16.6719 1.81309 17.1276 1.54454 17.5508 1.33295C17.9902 1.10508 18.3483 0.99115 18.625 0.99115C19.1784 0.99115 19.5527 1.31667 19.748 1.96771C19.9434 2.60248 20.041 3.64414 20.041 5.09271C20.041 5.74375 19.8457 6.36224 19.4551 6.94818C19.0807 7.53412 18.6576 8.06309 18.1855 8.5351C17.6484 9.0722 17.0299 9.57676 16.3301 10.0488L16.1348 9.65814C16.2161 9.54421 16.3057 9.38145 16.4033 9.16986C16.501 8.942 16.5905 8.68158 16.6719 8.38861C16.7695 8.09564 16.8428 7.77826 16.8916 7.43646C16.9567 7.09467 16.9893 6.75287 16.9893 6.41107C16.9893 5.69493 16.8428 5.14968 16.5498 4.77533C16.2731 4.3847 15.9313 4.18939 15.5244 4.18939C15.3128 4.18939 15.085 4.36029 14.8408 4.70209C14.5967 5.04388 14.3444 5.49961 14.084 6.06927C13.8398 6.62266 13.5957 7.26556 13.3516 7.99799C13.1237 8.71413 12.9202 9.46283 12.7412 10.2441C12.6761 10.537 12.5378 11.0172 12.3262 11.6845C12.1309 12.3518 11.8867 13.1575 11.5938 14.1015C11.3008 15.0292 10.9671 16.0628 10.5928 17.2021C10.2184 18.3414 9.8278 19.5214 9.4209 20.7421C9.03027 21.9466 8.62337 23.1754 8.2002 24.4286C7.79329 25.6656 7.39453 26.8538 7.00391 27.9931C6.61328 29.1324 6.23893 30.1985 5.88086 31.1913C5.53906 32.1679 5.23796 33.0061 4.97754 33.706ZM35.7393 0.942322C36.3252 0.942322 36.903 1.07253 37.4727 1.33295C38.0586 1.59336 38.5794 1.96771 39.0352 2.45599C39.4909 2.94427 39.8571 3.54649 40.1338 4.26263C40.4105 4.9625 40.5488 5.76003 40.5488 6.65521C40.5488 7.63177 40.4349 8.73855 40.207 9.97552C39.9954 11.1962 39.7188 12.4576 39.377 13.7597C39.0352 15.0618 38.6527 16.3557 38.2295 17.6415C37.8226 18.9273 37.4238 20.1074 37.0332 21.1816C36.6426 22.2395 36.2926 23.151 35.9834 23.916C35.6904 24.6809 35.4788 25.1936 35.3486 25.454C34.6325 26.984 33.8594 28.3756 33.0293 29.6288C32.2155 30.8658 31.3366 31.9238 30.3926 32.8027C29.4648 33.6816 28.4639 34.3652 27.3896 34.8535C26.3317 35.3255 25.2005 35.5615 23.9961 35.5615C23.4102 35.5615 22.7998 35.4231 22.165 35.1464C21.5465 34.886 20.9769 34.5117 20.4561 34.0234C19.9515 33.5188 19.5365 32.9085 19.2109 32.1923C18.8691 31.4762 18.6982 30.6786 18.6982 29.7997C18.6982 28.8232 18.8122 27.7245 19.04 26.5038C19.2516 25.2669 19.5283 23.9973 19.8701 22.6953C20.2119 21.3932 20.5863 20.1074 20.9932 18.8378C21.4163 17.552 21.8232 16.3801 22.2139 15.3222C22.6045 14.2643 22.9463 13.3609 23.2393 12.6122C23.5485 11.8473 23.7682 11.3264 23.8984 11.0497C24.6146 9.5198 25.404 8.13633 26.2666 6.89935C27.1455 5.6461 28.0814 4.58002 29.0742 3.70111C30.0833 2.8222 31.1413 2.14675 32.248 1.67474C33.3711 1.18646 34.5348 0.942322 35.7393 0.942322ZM24.6064 33.6572C25.1924 33.6572 25.8109 33.3154 26.4619 32.6318C27.113 31.9482 27.764 31.0367 28.415 29.8974C29.0824 28.7581 29.7334 27.4479 30.3682 25.9667C31.0192 24.4693 31.6296 22.915 32.1992 21.3036C32.7852 19.676 33.3223 18.0403 33.8105 16.3964C34.3151 14.7525 34.7464 13.2145 35.1045 11.7822C35.4626 10.3499 35.7393 9.0722 35.9346 7.94916C36.1462 6.80983 36.252 5.9472 36.252 5.36127C36.252 4.59629 36.1136 4.00222 35.8369 3.57904C35.5602 3.15586 35.1615 2.94427 34.6406 2.94427C34.0384 2.94427 33.4118 3.28607 32.7607 3.96967C32.1097 4.65326 31.4505 5.56472 30.7832 6.70404C30.1322 7.82709 29.4893 9.13731 28.8545 10.6347C28.2197 12.1158 27.6094 13.6702 27.0234 15.2978C26.4375 16.9091 25.9004 18.5367 25.4121 20.1806C24.9238 21.8082 24.5007 23.3382 24.1426 24.7704C23.7845 26.1865 23.4997 27.456 23.2881 28.579C23.0928 29.7021 22.9951 30.5566 22.9951 31.1425C22.9951 31.9238 23.1253 32.5423 23.3857 32.998C23.6462 33.4374 24.0531 33.6572 24.6064 33.6572ZM50.9248 22.7929C50.9248 22.4023 50.8678 22.1419 50.7539 22.0117C50.6562 21.8814 50.5667 21.7919 50.4854 21.7431V21.4501C50.9248 21.3036 51.3317 21.1734 51.7061 21.0595C52.0967 20.9456 52.4873 20.8479 52.8779 20.7665C53.2848 20.6852 53.7161 20.6282 54.1719 20.5956C54.6276 20.5468 55.1484 20.5143 55.7344 20.498L55.832 20.6445C55.5065 21.4745 55.1729 22.3779 54.8311 23.3544C54.4893 24.3147 54.1068 25.3971 53.6836 26.6015C53.2767 27.8059 52.821 29.1487 52.3164 30.6298C51.8118 32.1109 51.2503 33.7874 50.6318 35.6591C50.2087 36.8961 49.6878 37.9866 49.0693 38.9306C48.4508 39.8746 47.7754 40.6966 47.043 41.3964C46.3268 42.1126 45.5863 42.7229 44.8213 43.2275C44.0563 43.732 43.3239 44.1552 42.624 44.497C41.9242 44.8551 41.2731 45.1481 40.6709 45.3759C40.085 45.6201 39.6048 45.8316 39.2305 46.0107L38.9131 45.3515C39.5479 45.0097 40.1826 44.6435 40.8174 44.2529C41.4684 43.8785 42.1032 43.374 42.7217 42.7392C43.3564 42.1207 43.9668 41.3232 44.5527 40.3466C45.1387 39.3863 45.6921 38.1575 46.2129 36.6601C46.3757 36.1881 46.571 35.6428 46.7988 35.0244C47.043 34.4059 47.3034 33.7304 47.5801 32.998C46.7174 33.7792 45.8548 34.3896 44.9922 34.829C44.1458 35.2685 43.3239 35.4882 42.5264 35.4882C42.0544 35.4882 41.5742 35.3417 41.0859 35.0488C40.6139 34.7721 40.1826 34.3733 39.792 33.8525C39.4176 33.3154 39.1165 32.6806 38.8887 31.9482C38.6445 31.1995 38.5225 30.3694 38.5225 29.4579C38.5225 28.6279 38.6364 27.6513 38.8643 26.5283C39.0921 25.3889 39.377 24.2008 39.7188 22.9638C40.0768 21.7106 40.4593 20.4573 40.8662 19.204C41.2894 17.9508 41.6882 16.7952 42.0625 15.7372C42.4531 14.6793 42.7949 13.776 43.0879 13.0273C43.3809 12.2623 43.5762 11.7496 43.6738 11.4892C44.0645 10.4801 44.5771 9.5198 45.2119 8.60834C45.8467 7.69688 46.5465 6.85052 47.3115 6.06927C48.0928 5.27175 48.8984 4.5556 49.7285 3.92084C50.5749 3.28607 51.4049 2.74896 52.2188 2.30951C53.0488 1.85378 53.8301 1.50385 54.5625 1.2597C55.3112 1.01556 55.9622 0.893494 56.5156 0.893494C56.9551 0.893494 57.3294 1.00743 57.6387 1.23529C57.9479 1.46316 58.2002 1.76426 58.3955 2.13861C58.6071 2.51296 58.7536 2.94427 58.835 3.43256C58.9326 3.92084 58.9814 4.42539 58.9814 4.94623C58.9814 5.43451 58.8757 5.91465 58.6641 6.38666C58.4688 6.85866 58.2165 7.30625 57.9072 7.72943C57.598 8.13633 57.248 8.51882 56.8574 8.87689C56.4668 9.23497 56.0843 9.55235 55.71 9.82904C55.3519 10.0895 55.0101 10.3092 54.6846 10.4882C54.3753 10.6673 54.1393 10.7893 53.9766 10.8544L53.8301 10.4394C54.0742 10.1301 54.2858 9.78021 54.4648 9.38959C54.6602 8.99896 54.8229 8.59206 54.9531 8.16888C55.0833 7.74571 55.181 7.31439 55.2461 6.87494C55.3275 6.43549 55.3682 6.01231 55.3682 5.60541C55.3844 5.32872 55.36 5.06016 55.2949 4.79974C55.2298 4.53933 55.1403 4.30332 55.0264 4.09174C54.9124 3.88015 54.7741 3.71739 54.6113 3.60345C54.4486 3.47325 54.2695 3.40814 54.0742 3.40814C53.472 3.40814 52.8454 3.73366 52.1943 4.3847C51.5596 5.01947 50.9167 5.8821 50.2656 6.9726C49.6309 8.04681 49.0042 9.29193 48.3857 10.7079C47.7835 12.124 47.2057 13.6051 46.6523 15.1513C46.099 16.6813 45.5863 18.2275 45.1143 19.79C44.6585 21.3525 44.2598 22.8255 43.918 24.2089C43.5924 25.5761 43.332 26.805 43.1367 27.8954C42.9577 28.9859 42.8682 29.8242 42.8682 30.4101C42.8682 30.6868 42.9089 30.9798 42.9902 31.289C43.0716 31.5982 43.1855 31.8831 43.332 32.1435C43.4785 32.4039 43.6494 32.6236 43.8447 32.8027C44.0563 32.9654 44.2842 33.0468 44.5283 33.0468C45.0492 33.0468 45.6432 32.8515 46.3105 32.4609C46.9941 32.054 47.7021 31.4518 48.4346 30.6542C48.7438 29.7753 49.0449 28.9127 49.3379 28.0663C49.6471 27.2037 49.9157 26.4143 50.1436 25.6982C50.3714 24.982 50.5586 24.3717 50.7051 23.8671C50.8516 23.3463 50.9248 22.9882 50.9248 22.7929ZM74.2158 0.942322C74.8018 0.942322 75.3796 1.07253 75.9492 1.33295C76.5352 1.59336 77.056 1.96771 77.5117 2.45599C77.9674 2.94427 78.3337 3.54649 78.6104 4.26263C78.887 4.9625 79.0254 5.76003 79.0254 6.65521C79.0254 7.63177 78.9115 8.73855 78.6836 9.97552C78.472 11.1962 78.1953 12.4576 77.8535 13.7597C77.5117 15.0618 77.1292 16.3557 76.7061 17.6415C76.2992 18.9273 75.9004 20.1074 75.5098 21.1816C75.1191 22.2395 74.7692 23.151 74.46 23.916C74.167 24.6809 73.9554 25.1936 73.8252 25.454C73.109 26.984 72.3359 28.3756 71.5059 29.6288C70.6921 30.8658 69.8132 31.9238 68.8691 32.8027C67.9414 33.6816 66.9404 34.3652 65.8662 34.8535C64.8083 35.3255 63.6771 35.5615 62.4727 35.5615C61.8867 35.5615 61.2764 35.4231 60.6416 35.1464C60.0231 34.886 59.4535 34.5117 58.9326 34.0234C58.4281 33.5188 58.013 32.9085 57.6875 32.1923C57.3457 31.4762 57.1748 30.6786 57.1748 29.7997C57.1748 28.8232 57.2887 27.7245 57.5166 26.5038C57.7282 25.2669 58.0049 23.9973 58.3467 22.6953C58.6885 21.3932 59.0628 20.1074 59.4697 18.8378C59.8929 17.552 60.2998 16.3801 60.6904 15.3222C61.0811 14.2643 61.4229 13.3609 61.7158 12.6122C62.0251 11.8473 62.2448 11.3264 62.375 11.0497C63.0911 9.5198 63.8805 8.13633 64.7432 6.89935C65.6221 5.6461 66.5579 4.58002 67.5508 3.70111C68.5599 2.8222 69.6178 2.14675 70.7246 1.67474C71.8477 1.18646 73.0114 0.942322 74.2158 0.942322ZM63.083 33.6572C63.6689 33.6572 64.2874 33.3154 64.9385 32.6318C65.5895 31.9482 66.2406 31.0367 66.8916 29.8974C67.5589 28.7581 68.21 27.4479 68.8447 25.9667C69.4958 24.4693 70.1061 22.915 70.6758 21.3036C71.2617 19.676 71.7988 18.0403 72.2871 16.3964C72.7917 14.7525 73.223 13.2145 73.5811 11.7822C73.9391 10.3499 74.2158 9.0722 74.4111 7.94916C74.6227 6.80983 74.7285 5.9472 74.7285 5.36127C74.7285 4.59629 74.5902 4.00222 74.3135 3.57904C74.0368 3.15586 73.638 2.94427 73.1172 2.94427C72.515 2.94427 71.8883 3.28607 71.2373 3.96967C70.5863 4.65326 69.9271 5.56472 69.2598 6.70404C68.6087 7.82709 67.9658 9.13731 67.3311 10.6347C66.6963 12.1158 66.0859 13.6702 65.5 15.2978C64.9141 16.9091 64.377 18.5367 63.8887 20.1806C63.4004 21.8082 62.9772 23.3382 62.6191 24.7704C62.2611 26.1865 61.9762 27.456 61.7646 28.579C61.5693 29.7021 61.4717 30.5566 61.4717 31.1425C61.4717 31.9238 61.6019 32.5423 61.8623 32.998C62.1227 33.4374 62.5296 33.6572 63.083 33.6572Z" fill="#46B4B7"/>
</svg>
