<svg width="36" height="37" viewBox="0 0 36 37" fill="none" xmlns="http://www.w3.org/2000/svg">
<g clip-path="url(#clip0)">
<path d="M18 0.499954C8.07484 0.499954 0 8.5748 0 18.5C0 28.4244 8.07484 36.5 18 36.5C27.9244 36.5 36 28.4244 36 18.5C36 8.5748 27.9259 0.499954 18 0.499954ZM22.4764 19.1336H19.548C19.548 23.8124 19.548 29.5714 19.548 29.5714H15.2086C15.2086 29.5714 15.2086 23.8682 15.2086 19.1336H13.1458V15.4446H15.2086V13.0585C15.2086 11.3495 16.0206 8.6792 19.5879 8.6792L22.8034 8.69153V12.2725C22.8034 12.2725 20.8494 12.2725 20.4695 12.2725C20.0896 12.2725 19.5494 12.4625 19.5494 13.2774V15.4453H22.8556L22.4764 19.1336Z" fill="#E42B77"/>
</g>
<defs>
<clipPath id="clip0">
<rect width="36" height="36" fill="white" transform="translate(0 0.499954)"/>
</clipPath>
</defs>
</svg>
