<svg width="36" height="37" viewBox="0 0 36 37" fill="none" xmlns="http://www.w3.org/2000/svg">
<path d="M1.14258 8.61981V28.3449C1.14258 32.2178 4.28213 35.3574 8.15501 35.3574H27.8801C31.753 35.3574 34.8926 32.2178 34.8926 28.3449V8.61981C34.8926 4.74693 31.753 1.60738 27.8801 1.60738H8.15501C4.28213 1.60738 1.14258 4.74693 1.14258 8.61981ZM21.5926 28.045C13.2682 30.9172 5.58277 23.2318 8.45494 14.9074C9.4227 12.1017 11.6367 9.8875 14.4424 8.91974C22.767 6.04757 30.4524 13.733 27.5802 22.0576C26.6125 24.8632 24.3984 27.0773 21.5926 28.045ZM29.7285 8.27704C29.5961 8.97062 29.0222 9.37416 28.4285 9.37416C28.0672 9.37416 27.6989 9.22502 27.4169 8.90141C27.3919 8.87277 27.3687 8.84208 27.3481 8.81015C27.057 8.3652 27.0479 7.83662 27.2953 7.40795C27.4704 7.10452 27.753 6.88782 28.0915 6.79718C28.4295 6.70613 28.783 6.75289 29.086 6.92819C29.5149 7.17538 29.7712 7.63784 29.7419 8.16807C29.7399 8.20432 29.7355 8.2412 29.7285 8.27704Z" fill="#E42B77"/>
<path d="M18.0176 10.2834C13.4964 10.2834 9.8186 13.9612 9.8186 18.4824C9.8186 23.0035 13.4964 26.6813 18.0176 26.6813C22.5387 26.6813 26.2165 23.0035 26.2165 18.4824C26.2165 13.9612 22.5387 10.2834 18.0176 10.2834Z" fill="#E42B77"/>
</svg>
