<svg width="37" height="36" viewBox="0 0 37 36" fill="none" xmlns="http://www.w3.org/2000/svg">
<g clip-path="url(#clip0)">
<path d="M18.5 0C8.5595 0 0.5 8.0595 0.5 18C0.5 27.9405 8.5595 36 18.5 36C28.4405 36 36.5 27.9405 36.5 18C36.5 8.05728 28.4405 0 18.5 0ZM14 26.7187H9.5V10.9687H14V26.7187ZM11.8895 10.0035C10.724 10.0035 9.78125 9.05847 9.78125 7.89297C9.78125 6.72746 10.7263 5.78245 11.8895 5.78245C13.055 5.78467 14 6.72968 14 7.89297C14 9.05847 13.055 10.0035 11.8895 10.0035ZM29.75 26.7187H25.25V16.9807C25.25 15.84 24.9237 15.0413 23.5219 15.0413C21.1977 15.0413 20.75 16.9807 20.75 16.9807V26.7187H16.25V10.9687H20.75V12.4739C21.3934 11.9812 22.9999 10.9709 25.25 10.9709C26.708 10.9709 29.75 11.8439 29.75 17.1179V26.7187Z" fill="#E42B77"/>
</g>
<defs>
<clipPath id="clip0">
<rect width="36" height="36" fill="white" transform="translate(0.5)"/>
</clipPath>
</defs>
</svg>
