<svg width="32" height="32" viewBox="0 0 32 32" fill="none" xmlns="http://www.w3.org/2000/svg">
<path fill-rule="evenodd" clip-rule="evenodd" d="M31.2167 27.435L24.2649 20.4833C24.228 20.4463 24.1846 20.4205 24.146 20.3861C25.5139 18.3112 26.3123 15.8274 26.3123 13.1563C26.3123 5.89023 20.422 0 13.1561 0C5.89023 0 0 5.89023 0 13.1561C0 20.4219 5.8901 26.3123 13.156 26.3123C15.8272 26.3123 18.3109 25.5139 20.3859 24.146C20.4203 24.1845 20.446 24.2278 20.4829 24.2648L27.4348 31.2167C28.4792 32.2609 30.1723 32.2609 31.2167 31.2167C32.2609 30.1724 32.2609 28.4793 31.2167 27.435ZM13.1561 21.7515C8.40893 21.7515 4.56069 17.9032 4.56069 13.1561C4.56069 8.40893 8.40906 4.56069 13.1561 4.56069C17.9031 4.56069 21.7515 8.40906 21.7515 13.1561C21.7515 17.9032 17.9031 21.7515 13.1561 21.7515Z" fill="#E42B77"/>
</svg>
