<svg width="36" height="37" viewBox="0 0 36 37" fill="none" xmlns="http://www.w3.org/2000/svg">
<g clip-path="url(#clip0)">
<path d="M18 0.499954C8.07484 0.499954 0 8.5748 0 18.5C0 28.4244 8.07484 36.5 18 36.5C27.9244 36.5 36 28.4244 36 18.5C36 8.5748 27.9259 0.499954 18 0.499954ZM26.0299 14.3802C26.0379 14.5586 26.0422 14.7384 26.0422 14.9182C26.0422 20.3931 21.8761 26.7039 14.2537 26.7039C11.914 26.7039 9.73592 26.0201 7.903 24.8441C8.2271 24.8825 8.557 24.9021 8.89124 24.9021C10.8329 24.9021 12.6187 24.2394 14.0369 23.1287C12.2243 23.0953 10.6937 21.8975 10.1666 20.2509C10.4189 20.2988 10.6792 20.3256 10.9453 20.3256C11.323 20.3256 11.6899 20.2763 12.0372 20.1813C10.1419 19.8014 8.71433 18.1273 8.71433 16.1189C8.71433 16.1015 8.71433 16.0834 8.71506 16.0667C9.27334 16.3763 9.91211 16.5634 10.5908 16.5844C9.47998 15.8427 8.74841 14.5738 8.74841 13.1368C8.74841 12.3769 8.95215 11.6649 9.30887 11.053C11.3513 13.5602 14.4052 15.209 17.8477 15.383C17.7767 15.0792 17.7412 14.7638 17.7412 14.4382C17.7412 12.1507 19.5958 10.2953 21.8833 10.2953C23.0753 10.2953 24.1506 10.7985 24.9075 11.6033C25.8523 11.4177 26.7368 11.074 27.5394 10.5977C27.2277 11.5656 26.5729 12.3769 25.7152 12.8903C26.5541 12.7902 27.3545 12.5684 28.0948 12.2385C27.5423 13.0679 26.8398 13.798 26.0299 14.3802Z" fill="#E42B77"/>
</g>
<defs>
<clipPath id="clip0">
<rect width="36" height="36" fill="white" transform="translate(0 0.499954)"/>
</clipPath>
</defs>
</svg>
